<?xml version="1.0" standalone="no"?>
<!DOCTYPE svg PUBLIC "-//W3C//DTD SVG 20010904//EN"
 "http://www.w3.org/TR/2001/REC-SVG-20010904/DTD/svg10.dtd">
<svg version="1.0" xmlns="http://www.w3.org/2000/svg"
 width="16.000000pt" height="16.000000pt" viewBox="0 0 16.000000 16.000000"
 preserveAspectRatio="xMidYMid meet">
<metadata>
Created by potrace 1.11, written by Peter Selinger 2001-2013
</metadata>
<g transform="translate(0.000000,16.000000) scale(0.002286,-0.002286)"
fill="#000000" stroke="none">
<path d="M685 6387 c-3 -6 -4 -1310 -3 -2897 l3 -2885 1915 1 c1886 1 2076 3
2235 24 116 16 181 27 300 54 295 65 605 222 785 397 49 48 131 144 169 198
24 35 107 193 128 246 38 94 76 254 91 380 14 119 6 438 -13 505 -2 8 -6 31
-9 50 -6 38 -51 203 -65 235 -5 11 -23 54 -41 95 -41 96 -119 227 -185 310
-91 113 -165 182 -335 308 -36 27 -224 118 -298 145 l-64 23 79 34 c507 221
786 692 759 1284 -8 167 -15 222 -52 386 -14 64 -59 184 -105 278 -122 252
-332 470 -586 609 -154 83 -371 161 -533 189 -25 4 -47 8 -50 9 -3 1 -32 5
-65 9 -33 5 -73 11 -90 14 -16 3 -916 7 -1998 9 -1552 2 -1969 0 -1972 -10z
m2392 -416 c207 -112 363 -277 467 -494 40 -83 79 -192 90 -251 2 -11 9 -41
14 -66 17 -73 25 -166 26 -310 4 -286 -52 -502 -178 -693 -143 -215 -445 -378
-708 -382 l-88 -1 0 1121 0 1121 149 -2 150 -1 78 -42z m83 -2641 c333 -112
584 -369 698 -715 54 -161 72 -303 68 -520 -2 -104 -6 -203 -10 -220 -47 -220
-82 -310 -166 -435 -74 -109 -227 -238 -340 -286 -19 -9 -48 -22 -65 -29 -125
-56 -327 -90 -535 -90 l-105 0 -3 1157 -2 1157 22 3 c13 2 102 2 199 1 149 -1
185 -5 239 -23z"/>
</g>
</svg>
